# xmcd
#
# Track frame offsets:
#	150
#	16987
#	33942
#	46860
#	58857
#	71290
#	81195
#	94017
#	110417
#	121985
#	135795
#	152330
#	163177
#	174932
#	187202
#	200607
#	212865
#	231422
#	270907
#	317647
#
# Disc length: 4245 seconds
#
# Revision: 0
# Processed by: cddbd v1.5.2PL0 Copyright (c) Steve Scherf et al.
# Submitted via: dBpowerAMP V4.0
#
DISCID=08109314
DTITLE=George Jones - My Very Special Guest (Disc1)
DYEAR=2005
DGENRE=Country
TTITLE0=Night Life (With Waylon Jennings)
TTITLE1=Bartender's Blues (With James Taylor)
TTITLE2=Here We Are (With Emmylou Harris)
TTITLE3=I've Turned You To Stone (With Linda Ronstadt)
TTITLE4=It Sure Was Good (With Tammy Wynette)
TTITLE5=I Gotta Get Drunk (With Willie Nelson)
TTITLE6=Proud Mary (With Johnny Paycheck)
TTITLE7=Stranger In The House (With Elvis Costello)
TTITLE8=I Still Hold Her Body (But I Think I've Lost Her Mind) (With Dennis and Ray Of Dr. Hook)
TTITLE9=Will The Circle Be Unbroken (With Pop And Mavis Staples)
TTITLE10=A Few Ole Country Boys (With Randy Travis)
TTITLE11=It Hurts As Much In Texas (As It Did In Tennessee) (With Ricky Van Shelton)
TTITLE12=You Never Looked That Good When You Were Mine (With Patti Page)
TTITLE13=All I Want To Do In Life (With Janie Frickie)
TTITLE14=Wonderful World Outside (With Ralph Stanley)
TTITLE15=You Can't Do Wrong And Get By (With Ricky Skaggs)
TTITLE16=You Don't Seem To Miss Me (With Patty Loveless)
TTITLE17=Patches (With B.B. King)
TTITLE18=DATA
TTITLE19=DATA
EXTD=
EXTT0=
EXTT1=
EXTT2=
EXTT3=
EXTT4=
EXTT5=
EXTT6=
EXTT7=
EXTT8=
EXTT9=
EXTT10=
EXTT11=
EXTT12=
EXTT13=
EXTT14=
EXTT15=
EXTT16=
EXTT17=
EXTT18=
EXTT19=
PLAYORDER=
